<svg xmlns="http://www.w3.org/2000/svg" viewBox="0 0 200 200"><defs><style>.cls-1{fill:#2d7df6;}.cls-2{fill:#fff;}.cls-3,.cls-4{fill:none;stroke:#fff;stroke-miterlimit:10;}.cls-3{stroke-width:9px;}.cls-4{stroke-width:4px;}</style></defs><title>Asset 9</title><g id="Layer_2" data-name="Layer 2"><g id="Layer_1-2" data-name="Layer 1"><path class="cls-1" d="M38.41,198A36.45,36.45,0,0,1,2,161.59V135.92c1.39-.27,2-1.19,2-2.92H2V38.41A36.45,36.45,0,0,1,38.41,2H161.59A36.45,36.45,0,0,1,198,38.41V161.59A36.45,36.45,0,0,1,161.59,198Z"/><path class="cls-2" d="M161.59,4A34.45,34.45,0,0,1,196,38.41V161.59A34.45,34.45,0,0,1,161.59,196H38.41A34.45,34.45,0,0,1,4,161.59V137.27A4.64,4.64,0,0,0,6,133H4V38.41A34.45,34.45,0,0,1,38.41,4H161.59m0-4H38.41A38.53,38.53,0,0,0,0,38.41V161.59A38.53,38.53,0,0,0,38.41,200H161.59A38.53,38.53,0,0,0,200,161.59V38.41A38.53,38.53,0,0,0,161.59,0ZM2,133v0c0,1,0,1-1,1,1,0,1,0,1-1Z"/><path class="cls-2" d="M44,68h0Z"/><path class="cls-2" d="M44,68h0Z"/><polygon class="cls-2" points="70.87 70.78 99.83 50.41 147.14 61.95 118.19 82.32 70.87 70.78"/><path class="cls-2" d="M99.93,51l46,11.22L118.08,81.78l-46-11.23L99.93,51m-.21-1.08L69.68,71l48.61,11.86,30-21.14L99.72,49.87Z"/><path class="cls-2" d="M133.7,90.7c-3.55,0-6.13-1-7.47-2.93-2-2.8-1.21-7.3,2.12-12.67s9.09-11.19,16-16C153.41,52.73,163,48.94,170,48.94c3.54,0,6.12,1,7.46,2.93,2,2.8,1.21,7.31-2.12,12.68s-9.09,11.18-16,16C150.32,86.91,140.72,90.7,133.7,90.7Z"/><path class="cls-2" d="M170,49.44h0c2.35,0,5.48.47,7.05,2.72,1.82,2.59,1,7-2.13,12.12-3.38,5.44-9,11.08-15.86,15.87-8.85,6.2-18.59,10-25.41,10-2.35,0-5.48-.47-7-2.71-1.82-2.6-1-7,2.13-12.13,3.38-5.44,9-11.08,15.86-15.87,8.85-6.2,18.59-10.05,25.41-10.05m0-1c-6.82,0-16.57,3.64-26,10.23C129.67,68.74,121.5,81.9,125.82,88.06c1.49,2.13,4.27,3.14,7.87,3.14,6.82,0,16.57-3.63,26-10.23,14.39-10.07,22.56-23.23,18.24-29.39-1.49-2.13-4.27-3.14-7.87-3.14Z"/><rect class="cls-2" x="63.59" y="87.1" width="93.66" height="24.99" transform="translate(-37.16 81.35) rotate(-35)"/><path class="cls-2" d="M141.49,63.2l13.76,19.65L79.35,136,65.59,116.34l75.9-53.14m.25-1.4L64.2,116.1l14.91,21.29,77.54-54.3L141.74,61.8Z"/><polygon class="cls-2" points="54.32 112.47 65.1 102.34 96.48 114.62 80.79 129.86 54.32 112.47"/><path class="cls-2" d="M65.21,102.92,95.58,114.8,80.73,129.22,55.12,112.4l10.09-9.48M65,101.76,53.51,112.54l27.34,18,16.54-16.07L65,101.76Z"/><path class="cls-3" d="M5.14,137.59C14,145,23,153,35,152a105.21,105.21,0,0,0,43.78-19.66"/><polygon class="cls-4" points="4.63 132.56 3.48 138.28 6.7 135.41 4.63 132.56"/></g></g></svg>