<?xml version="1.0" standalone="no"?>
<!DOCTYPE svg PUBLIC "-//W3C//DTD SVG 20010904//EN"
 "http://www.w3.org/TR/2001/REC-SVG-20010904/DTD/svg10.dtd">
<svg version="1.0" xmlns="http://www.w3.org/2000/svg"
 width="700.000000pt" height="700.000000pt" viewBox="0 0 700.000000 700.000000"
 preserveAspectRatio="xMidYMid meet">
<metadata>
Created by potrace 1.11, written by Peter Selinger 2001-2013
</metadata>
<g transform="translate(0.000000,700.000000) scale(0.100000,-0.100000)"
fill="#000000" stroke="none">
<path d="M1255 6853 c-223 -19 -451 -105 -624 -233 -243 -181 -394 -422 -469
-745 -14 -62 -16 -248 -19 -1716 l-4 -1646 83 -113 c72 -98 101 -128 218 -223
317 -256 514 -346 730 -334 238 13 722 184 1062 373 88 49 358 220 358 227 0
1 -71 103 -158 227 l-158 224 -242 126 c-133 69 -242 128 -242 131 0 3 72 70
160 149 l161 142 272 -101 c150 -56 277 -101 283 -101 21 0 1297 900 1283 904
-8 3 -349 87 -759 186 -409 100 -746 183 -748 184 -8 8 1051 741 1066 738 9
-2 338 -82 730 -178 393 -96 719 -174 726 -174 6 0 35 18 65 40 29 22 101 68
159 104 318 190 616 283 826 256 365 -46 335 -406 -70 -829 -108 -113 -258
-241 -383 -326 -178 -122 -2729 -1916 -2796 -1966 -192 -145 -525 -331 -775
-432 -308 -125 -628 -215 -797 -224 -310 -16 -589 106 -977 426 l-78 64 5
-409 c4 -314 8 -425 20 -479 112 -515 479 -873 992 -967 103 -19 4587 -19
4690 0 523 96 901 474 997 997 19 103 19 4587 0 4690 -83 454 -395 818 -812
950 -202 64 -3 59 -2480 60 -1240 1 -2273 0 -2295 -2z"/>
</g>
</svg>
